<?xml version="1.0" encoding="UTF-8"?>
<svg width="20px" height="20px" viewBox="0 0 20 20" version="1.1" xmlns="http://www.w3.org/2000/svg" xmlns:xlink="http://www.w3.org/1999/xlink">
    <title>icons / ic-tonnage-lifted</title>
    <defs>
        <path d="M11,21 C5.486,21 1,16.514 1,11 C1,5.486 5.486,1 11,1 C12.359,1 13.679,1.269 14.92,1.798 C16.406,2.432 17.731,3.43 18.754,4.685 C19.077,5.081 19.049,5.655 18.691,6.019 L10.292,14.543 C10.104,14.734 9.828,14.887 9.579,14.842 C9.314,14.842 9.06,14.736 8.872,14.549 L5.293,10.971 C4.903,10.581 4.903,9.947 5.293,9.557 C5.684,9.166 6.317,9.166 6.708,9.557 L9.574,12.422 L16.602,5.29 C15.891,4.592 15.051,4.028 14.136,3.638 C13.144,3.214 12.088,3 11,3 C6.589,3 3,6.589 3,11 C3,15.411 6.589,19 11,19 C15.411,19 19,15.411 19,11 C19,10.448 19.448,10 20,10 C20.552,10 21,10.448 21,11 C21,16.514 16.514,21 11,21" id="path-1"></path>
    </defs>
    <g id="UI" stroke="none" stroke-width="1" fill="none" fill-rule="evenodd">
        <g id="stats" transform="translate(-44.000000, -270.000000)">
            <g id="workout-card" transform="translate(23.000000, 207.000000)">
                <g id="ic-workouts-completed" transform="translate(20.000000, 62.000000)">
                    <rect id="trimArea" opacity="0.600000024" x="0" y="0" width="22" height="22"></rect>
                    <mask id="mask-2" fill="white">
                        <use xlink:href="#path-1"></use>
                    </mask>
                    <use id="color" fill="#3b475d" xlink:href="#path-1"></use>
                </g>
            </g>
        </g>
    </g>
</svg>